<?xml version="1.0" encoding="UTF-8"?>
<svg id="Layer_1" xmlns="http://www.w3.org/2000/svg" version="1.1" viewBox="0 0 561.1 105.8">
  <!-- Generator: Adobe Illustrator 29.3.1, SVG Export Plug-In . SVG Version: 2.1.0 Build 151)  -->
  <g>
    <path d="M148.2,52.9c0-14.9,11.5-25.9,27.1-25.9s27.1,10.9,27.1,25.9-11.5,25.9-27.1,25.9-27.1-11-27.1-25.9ZM193,52.9c0-10.3-7.6-17.7-17.7-17.7s-17.7,7.4-17.7,17.7,7.6,17.7,17.7,17.7,17.7-7.4,17.7-17.7Z"/>
    <path d="M229.1,39.2v8.6c-.8-.1-1.4-.2-2.1-.2-6.8,0-11.2,4-11.2,11.9v18.6h-9v-38.5h8.6v5.6c2.6-4,7.3-6,13.7-6Z"/>
    <path d="M253.7,76c-2.2,1.7-5.4,2.6-8.6,2.6-8.4,0-13.2-4.5-13.2-13V31.2h9v8.8h10.3v7.2h-10.3v18.3c0,3.7,1.9,5.8,5.3,5.8s3.7-.5,5-1.6l2.5,6.4Z"/>
    <path d="M294.3,56.1v22h-9v-20.9c0-6.8-3.4-10.2-9.1-10.2s-10.7,3.9-10.7,11.6v19.4h-9V24.7h9v19.4c3-3.2,7.5-4.9,12.8-4.9,9.2,0,16.1,5.3,16.1,16.8Z"/>
    <path d="M298.2,58.9c0-11.5,8.6-19.7,20.4-19.7s20.5,8.1,20.5,19.7-8.6,19.7-20.5,19.7-20.4-8.2-20.4-19.7ZM330.1,58.9c0-7.3-4.9-12-11.4-12s-11.4,4.7-11.4,12,4.9,12,11.4,12,11.4-4.7,11.4-12Z"/>
    <path d="M381.3,39.7v32.6c0,14-7.3,20.3-20.7,20.3s-14.3-1.9-18.7-5.5l4-6.8c3.4,2.8,8.9,4.6,14.2,4.6,8.5,0,12.2-3.9,12.2-11.7v-2c-3.2,3.5-7.7,5.1-12.9,5.1-11,0-19.4-7.5-19.4-18.6s8.4-18.5,19.4-18.5,10.2,1.7,13.3,5.5v-5.1h8.6ZM372.5,57.8c0-6.5-4.9-10.9-11.7-10.9s-11.7,4.4-11.7,10.9,4.9,11,11.7,11,11.7-4.5,11.7-11Z"/>
    <path d="M385.3,58.9c0-11.5,8.6-19.7,20.4-19.7s20.5,8.1,20.5,19.7-8.6,19.7-20.5,19.7-20.4-8.2-20.4-19.7ZM417.2,58.9c0-7.3-4.9-12-11.4-12s-11.4,4.7-11.4,12,4.9,12,11.4,12,11.4-4.7,11.4-12Z"/>
    <path d="M468.1,56.1v22h-9v-20.9c0-6.8-3.4-10.2-9.1-10.2s-10.7,3.9-10.7,11.6v19.4h-9v-38.5h8.6v5c3-3.5,7.6-5.4,13.2-5.4,9.2,0,16.1,5.3,16.1,16.8Z"/>
    <path d="M512.8,39.7v38.5h-8.6v-5c-3,3.7-7.5,5.5-12.7,5.5-11.2,0-19.4-7.8-19.4-19.7s8.2-19.7,19.4-19.7,9.2,1.7,12.3,5.1v-4.7h9ZM503.9,58.9c0-7.3-4.9-12-11.4-12s-11.4,4.7-11.4,12,4.9,12,11.4,12,11.4-4.7,11.4-12Z"/>
    <path d="M519.9,66.1V24.7h9v40.8c0,3.7,1.8,5.8,5.4,5.8s2.5-.4,3.2-.7l.4,7.2c-1.7.6-3.6.9-5.4.9-8,0-12.7-4.5-12.7-12.5Z"/>
  </g>
  <g>
    <path d="M20,51.3c0-18.6,14.4-32.4,33.9-32.4s33.9,13.7,33.9,32.4-14.4,32.4-33.9,32.4-33.9-13.8-33.9-32.4ZM76.1,51.3c0-12.9-9.4-22.1-22.1-22.1s-22.1,9.3-22.1,22.1,9.4,22.1,22.1,22.1,22.1-9.3,22.1-22.1Z"/>
    <path d="M90.4,34.2c0-8.5,6.8-15.1,15.3-15.1s15.3,6.7,15.3,15.1-6.7,15-15.3,15-15.3-6.7-15.3-15ZM114.7,34.2c0-5.2-3.9-9.2-9-9.2s-9.1,3.9-9.1,9.2,4,9.1,9.1,9.1,9-4,9-9.1Z"/>
  </g>
</svg>